<svg width="375" height="244" viewBox="0 0 375 244" fill="none" xmlns="http://www.w3.org/2000/svg">
<rect width="375" height="244" fill="#262626"/>
<mask id="mask0_2936_1891" style="mask-type:alpha" maskUnits="userSpaceOnUse" x="0" y="0" width="375" height="244">
<rect width="375" height="244" fill="#262626"/>
</mask>
<g mask="url(#mask0_2936_1891)">
<g opacity="0.52" filter="url(#filter0_f_2936_1891)">
<path d="M225.123 54.1143L219.633 56.4429C216.559 57.7469 213.119 56.3577 211.814 53.2856L217.303 50.957C220.377 49.653 223.818 51.0422 225.123 54.1143Z" fill="white" fill-opacity="0.25"/>
</g>
<g opacity="0.45" filter="url(#filter1_f_2936_1891)">
<path d="M12.3755 120.362L9.36375 124.505C7.67717 126.825 4.52807 127.323 2.2067 125.638L5.21844 121.495C6.90502 119.175 10.0541 118.677 12.3755 120.362Z" fill="white" fill-opacity="0.25"/>
</g>
<g opacity="0.59" filter="url(#filter2_f_2936_1891)">
<path d="M321.056 146.764L314.366 145.943C310.619 145.483 308.037 142.18 308.497 138.436L315.187 139.257C318.933 139.717 321.516 143.02 321.056 146.764Z" fill="white" fill-opacity="0.25"/>
</g>
<g opacity="0.46" filter="url(#filter3_f_2936_1891)">
<path d="M48.7354 152.523L45.3689 156.532C43.4837 158.778 40.2372 159.061 37.9905 157.177L41.3569 153.168C43.2421 150.922 46.4886 150.639 48.7354 152.523Z" fill="white" fill-opacity="0.25"/>
</g>
<g opacity="0.51" filter="url(#filter4_f_2936_1891)">
<path d="M192.004 212.326L186.95 215.126C184.119 216.694 180.662 215.703 179.093 212.874L184.148 210.074C186.978 208.506 190.435 209.497 192.004 212.326Z" fill="white" fill-opacity="0.25"/>
</g>
<path opacity="0.67" d="M321.449 20.4937L315.533 15.706C312.22 13.0249 311.725 8.31695 314.408 5.00608L320.323 9.79374C323.636 12.4748 324.131 17.1828 321.449 20.4937Z" fill="white" fill-opacity="0.25"/>
<path opacity="0.65" d="M280.585 17.3835L274.284 13.4486C270.756 11.245 269.716 6.74275 271.921 3.21626L278.222 7.15125C281.75 9.35484 282.79 13.8571 280.585 17.3835Z" fill="white" fill-opacity="0.25"/>
<g opacity="0.45" filter="url(#filter5_f_2936_1891)">
<path d="M11.3247 239.362L8.31297 243.505C6.62639 245.825 3.47729 246.323 1.15592 244.638L4.16766 240.495C5.85424 238.175 9.00334 237.677 11.3247 239.362Z" fill="white" fill-opacity="0.25"/>
</g>
<path opacity="0.46" d="M60.0557 247.897L56.5282 251.813C54.5529 254.005 51.277 254.177 49.0832 252.203L52.6106 248.287C54.586 246.095 57.8618 245.923 60.0557 247.897Z" fill="white" fill-opacity="0.25"/>
<g opacity="0.55" filter="url(#filter7_f_2936_1891)">
<path d="M150.627 13.3577L144.421 14.4514C140.945 15.0638 137.733 12.8159 137.12 9.3424L143.326 8.24871C146.802 7.63624 150.014 9.88418 150.627 13.3577Z" fill="white" fill-opacity="0.25"/>
</g>
<path opacity="0.5" d="M163.485 248.639L158.726 251.728C156.061 253.458 152.608 252.724 150.877 250.061L155.636 246.972C158.301 245.242 161.755 245.976 163.485 248.639Z" fill="white" fill-opacity="0.25"/>
<g opacity="0.47" filter="url(#filter9_f_2936_1891)">
<path d="M93.9297 131.698L90.0587 135.434C87.891 137.526 84.543 137.468 82.4496 135.302L86.3206 131.566C88.4883 129.474 91.8363 129.532 93.9297 131.698Z" fill="white" fill-opacity="0.25"/>
</g>
<path opacity="0.62" d="M364.249 130.164L357.525 128.11C353.76 126.959 351.706 123.099 352.857 119.336L359.581 121.39C363.346 122.541 365.4 126.401 364.249 130.164Z" fill="white" fill-opacity="0.25"/>
<g opacity="0.48" filter="url(#filter10_f_2936_1891)">
<path d="M130.59 51.2229L126.379 54.7544C124.02 56.732 120.613 56.434 118.634 54.0772L122.845 50.5457C125.203 48.5681 128.611 48.8661 130.59 51.2229Z" fill="white" fill-opacity="0.25"/>
</g>
<g opacity="0.54" filter="url(#filter11_f_2936_1891)">
<path d="M104.393 13.553L98.3932 15.048C95.0333 15.8852 91.7352 13.9047 90.8974 10.5468L96.8973 9.05177C100.257 8.21455 103.555 10.1951 104.393 13.553Z" fill="white" fill-opacity="0.25"/>
</g>
<path opacity="0.63" d="M384.153 214.387L377.526 211.711C373.816 210.213 372.078 206.122 373.577 202.413L380.204 205.089C383.914 206.587 385.652 210.678 384.153 214.387Z" fill="white" fill-opacity="0.25"/>
<path opacity="0.65" d="M385.863 50.4319L379.471 46.7439C375.892 44.6786 374.703 40.2452 376.77 36.668L383.161 40.356C386.741 42.4213 387.929 46.8547 385.863 50.4319Z" fill="white" fill-opacity="0.25"/>
<g opacity="0.55" filter="url(#filter12_f_2936_1891)">
<path d="M264.46 92.5576L258.342 93.8573C254.916 94.5852 251.651 92.4666 250.923 89.0424L257.042 87.7426C260.468 87.0148 263.732 89.1334 264.46 92.5576Z" fill="white" fill-opacity="0.25"/>
</g>
<g opacity="0.61" filter="url(#filter13_f_2936_1891)">
<path d="M353.522 177.863L346.795 176.061C343.028 175.053 340.861 171.302 341.871 167.537L348.597 169.338C352.365 170.347 354.531 174.098 353.522 177.863Z" fill="white" fill-opacity="0.25"/>
</g>
<g opacity="0.45" filter="url(#filter14_f_2936_1891)">
<path d="M45.1587 201.794L41.8832 205.837C40.0489 208.1 36.828 208.439 34.5628 206.606L37.8383 202.563C39.6726 200.299 42.8936 199.961 45.1587 201.794Z" fill="white" fill-opacity="0.25"/>
</g>
<g opacity="0.58" filter="url(#filter15_f_2936_1891)">
<path d="M195.269 13.9321H188.7C185.022 13.9321 182.132 11.0437 182.132 7.36761L188.7 7.36761C192.378 7.36761 195.269 10.256 195.269 13.9321Z" fill="white" fill-opacity="0.25"/>
</g>
<g opacity="0.47" filter="url(#filter16_f_2936_1891)">
<path d="M91.8286 175.098L87.9577 178.834C85.7899 180.926 82.4419 180.868 80.3486 178.702L84.2195 174.966C86.3872 172.874 89.7353 172.932 91.8286 175.098Z" fill="white" fill-opacity="0.25"/>
</g>
<g opacity="0.48" filter="url(#filter17_f_2936_1891)">
<path d="M135.934 161.673L131.57 165.081C129.126 166.989 125.705 166.569 123.796 164.127L128.16 160.719C130.604 158.811 134.025 159.231 135.934 161.673Z" fill="white" fill-opacity="0.25"/>
</g>
<g opacity="0.56" filter="url(#filter18_f_2936_1891)">
<path d="M281.918 132.168L275.538 132.838C271.965 133.213 268.863 130.703 268.487 127.132L274.867 126.462C278.44 126.087 281.542 128.597 281.918 132.168Z" fill="white" fill-opacity="0.25"/>
</g>
<g opacity="0.59" filter="url(#filter19_f_2936_1891)">
<path d="M322.106 102.664L315.416 101.843C311.67 101.383 309.088 98.0803 309.548 94.336L316.238 95.157C319.984 95.6167 322.566 98.9198 322.106 102.664Z" fill="white" fill-opacity="0.25"/>
</g>
<g opacity="0.53" filter="url(#filter20_f_2936_1891)">
<path d="M236.404 133.233L230.567 135.016C227.299 136.015 223.946 134.233 222.946 130.967L228.783 129.183C232.051 128.185 235.405 129.967 236.404 133.233Z" fill="white" fill-opacity="0.25"/>
</g>
<g opacity="0.47" filter="url(#filter21_f_2936_1891)">
<path d="M106.959 88.3867L102.996 92.0803C100.776 94.1487 97.4063 94.0311 95.3366 91.813L99.2999 88.1194C101.519 86.051 104.889 86.1686 106.959 88.3867Z" fill="white" fill-opacity="0.25"/>
</g>
<g opacity="0.6" filter="url(#filter22_f_2936_1891)">
<path d="M340.414 221.602L333.672 220.169C329.896 219.367 327.56 215.772 328.362 211.998L335.105 213.431C338.881 214.233 341.217 217.828 340.414 221.602Z" fill="white" fill-opacity="0.25"/>
</g>
<g opacity="0.53" filter="url(#filter23_f_2936_1891)">
<path d="M15.4146 13.6423L9.6794 15.6159C6.46771 16.7211 3.07535 15.0676 1.96947 11.8578L7.70463 9.88422C10.9163 8.77901 14.3087 10.4326 15.4146 13.6423Z" fill="white" fill-opacity="0.25"/>
</g>
<path opacity="0.71" d="M363.771 17.5481L359.357 10.7555C356.885 6.9516 357.933 2.02193 361.74 -0.448332L366.153 6.34429C368.625 10.1482 367.577 15.0778 363.771 17.5481Z" fill="white" fill-opacity="0.25"/>
<g opacity="0.46" filter="url(#filter24_f_2936_1891)">
<path d="M58.1909 102.473L54.8245 106.482C52.9393 108.728 49.6927 109.011 47.446 107.127L50.8125 103.118C52.6977 100.872 55.9442 100.589 58.1909 102.473Z" stroke="white" stroke-opacity="0.25" stroke-width="0.897276"/>
</g>
<g opacity="0.52" filter="url(#filter25_f_2936_1891)">
<path d="M180.594 51.0803L175.24 53.5756C172.241 54.973 168.787 53.7164 167.389 50.7197L172.743 48.2244C175.742 46.8271 179.196 48.0837 180.594 51.0803Z" stroke="white" stroke-opacity="0.25" stroke-width="1.01218"/>
</g>
<g opacity="0.55" filter="url(#filter26_f_2936_1891)">
<path d="M269.347 175.186L263.09 176.176C259.587 176.731 256.398 174.416 255.843 170.914L262.099 169.924C265.603 169.369 268.792 171.685 269.347 175.186Z" stroke="white" stroke-opacity="0.25" stroke-width="1.08524"/>
</g>
<g opacity="0.51" filter="url(#filter27_f_2936_1891)">
<path d="M186.751 131.476L181.696 134.276C178.865 135.844 175.408 134.853 173.839 132.024L178.894 129.224C181.725 127.656 185.182 128.647 186.751 131.476Z" stroke="white" stroke-opacity="0.25" stroke-width="0.990172"/>
</g>
<g opacity="0.45" filter="url(#filter28_f_2936_1891)">
<path d="M32.1274 66.6167L28.9415 70.692C27.1574 72.9742 23.9614 73.3664 21.6778 71.5834L24.8637 67.508C26.6478 65.2258 29.8439 64.8337 32.1274 66.6167Z" stroke="white" stroke-opacity="0.25" stroke-width="0.886573"/>
</g>
<g opacity="0.48" filter="url(#filter29_f_2936_1891)">
<path d="M139.786 120.373L135.422 123.781C132.978 125.689 129.557 125.269 127.648 122.827L132.012 119.419C134.456 117.511 137.877 117.931 139.786 120.373Z" stroke="white" stroke-opacity="0.25" stroke-width="0.948868"/>
</g>
<g opacity="0.57" filter="url(#filter30_f_2936_1891)">
<path d="M265.069 50.1729L258.618 50.6237C255.005 50.8762 251.968 48.2376 251.715 44.627L258.167 44.1762C261.78 43.9237 264.817 46.5622 265.069 50.1729Z" stroke="white" stroke-opacity="0.25" stroke-width="1.10799"/>
</g>
<g opacity="0.46" filter="url(#filter31_f_2936_1891)">
<path d="M77.9907 53.3794L74.3711 57.2587C72.3441 59.4311 69.0435 59.5462 66.8698 57.5205L70.4895 53.6412C72.5165 51.4688 75.817 51.3536 77.9907 53.3794Z" stroke="white" stroke-opacity="0.25" stroke-width="0.909297"/>
</g>
<g opacity="0.58" filter="url(#filter32_f_2936_1891)">
<path d="M311.732 186.984L305.088 186.52C301.368 186.26 298.649 183.134 298.909 179.416L305.553 179.88C309.274 180.14 311.993 183.266 311.732 186.984Z" stroke="white" stroke-opacity="0.25" stroke-width="1.14109"/>
</g>
<g opacity="0.53" filter="url(#filter33_f_2936_1891)">
<path d="M242.007 214.433L236.17 216.216C232.902 217.215 229.549 215.433 228.549 212.167L234.386 210.383C237.654 209.385 241.008 211.167 242.007 214.433Z" stroke="white" stroke-opacity="0.25" stroke-width="1.04563"/>
</g>
<g opacity="0.5" filter="url(#filter34_f_2936_1891)">
<path d="M177.922 172.905L173.014 175.852C170.266 177.503 166.809 176.641 165.158 173.895L170.066 170.948C172.814 169.297 176.271 170.159 177.922 172.905Z" stroke="white" stroke-opacity="0.25" stroke-width="0.980891"/>
</g>
<g opacity="0.47" filter="url(#filter35_f_2936_1891)">
<path d="M91.4785 214.298L87.6076 218.034C85.4398 220.126 82.0918 220.068 79.9985 217.901L83.8694 214.166C86.0372 212.074 89.3852 212.132 91.4785 214.298Z" stroke="white" stroke-opacity="0.25" stroke-width="0.921947"/>
</g>
<path opacity="0.62" d="M375.561 91.3042L368.897 88.8801C365.165 87.5226 363.3 83.5255 364.658 79.7958L371.322 82.2199C375.054 83.5774 376.919 87.5745 375.561 91.3042Z" stroke="white" stroke-opacity="0.25" stroke-width="1.21502"/>
<g opacity="0.52" filter="url(#filter36_f_2936_1891)">
<path d="M212.803 93.4299L207.457 95.9212C204.463 97.3163 201.014 96.0617 199.618 93.0699L204.964 90.5787C207.958 89.1835 211.407 90.4381 212.803 93.4299Z" stroke="white" stroke-opacity="0.25" stroke-width="1.01054"/>
</g>
<g opacity="0.6" filter="url(#filter37_f_2936_1891)">
<path d="M344.617 59.2014L337.874 57.7691C334.098 56.967 331.762 53.3719 332.565 49.5983L339.307 51.0306C343.083 51.8327 345.419 55.4279 344.617 59.2014Z" stroke="white" stroke-opacity="0.25" stroke-width="1.18098"/>
</g>
<g opacity="0.52" filter="url(#filter38_f_2936_1891)">
<path d="M222.321 173.464L216.832 175.793C213.758 177.097 210.317 175.708 209.012 172.636L214.502 170.307C217.576 169.003 221.016 170.392 222.321 173.464Z" stroke="white" stroke-opacity="0.25" stroke-width="1.02165"/>
</g>
<g opacity="0.5" filter="url(#filter39_f_2936_1891)">
<path d="M163.485 87.6394L158.726 90.7281C156.061 92.4577 152.608 91.724 150.877 89.0606L155.636 85.972C158.301 84.2423 161.755 84.976 163.485 87.6394Z" stroke="white" stroke-opacity="0.25" stroke-width="0.972173"/>
</g>
<g opacity="0.58" filter="url(#filter40_f_2936_1891)">
<path d="M303.144 62.2375H296.565C292.881 62.2375 289.986 59.3445 289.986 55.6625H296.565C300.249 55.6625 303.144 58.5555 303.144 62.2375Z" stroke="white" stroke-opacity="0.25" stroke-width="1.12714"/>
</g>
<g opacity="0.57" filter="url(#filter41_f_2936_1891)">
<path d="M289.215 220.402L282.727 220.742C279.093 220.932 276.089 218.229 275.899 214.598L282.387 214.258C286.02 214.068 289.024 216.771 289.215 220.402Z" stroke="white" stroke-opacity="0.25" stroke-width="1.1131"/>
</g>
<path opacity="0.62" d="M237.397 15.8325L230.686 13.6533C226.928 12.433 224.935 8.52312 226.156 4.76728L232.867 6.94647C236.625 8.16682 238.618 12.0767 237.397 15.8325Z" stroke="white" stroke-opacity="0.25" stroke-width="1.20892"/>
<path opacity="0.48" d="M114.061 249.23L109.942 252.808C107.635 254.812 104.248 254.575 102.243 252.27L106.362 248.692C108.668 246.688 112.056 246.925 114.061 249.23Z" stroke="white" stroke-opacity="0.25" stroke-width="0.935036"/>
<g opacity="0.53" filter="url(#filter43_f_2936_1891)">
<path d="M58.1484 15.2834L52.3102 17.0673C49.0408 18.0662 45.6866 16.2839 44.6871 13.0164L50.5253 11.2326C53.7947 10.2336 57.1489 12.016 58.1484 15.2834Z" stroke="white" stroke-opacity="0.25" stroke-width="1.04594"/>
</g>
<g opacity="0.45" filter="url(#filter44_f_2936_1891)">
<path d="M6.42188 177.412L3.41013 181.555C1.72356 183.875 -1.42554 184.373 -3.74691 182.688L-0.735171 178.545C0.951404 176.225 4.1005 175.727 6.42188 177.412Z" stroke="white" stroke-opacity="0.25" stroke-width="0.87785"/>
</g>
<g opacity="0.48" filter="url(#filter45_f_2936_1891)">
<path d="M140.137 206.473L135.772 209.881C133.328 211.789 129.908 211.369 127.998 208.927L132.363 205.519C134.807 203.611 138.227 204.031 140.137 206.473Z" stroke="white" stroke-opacity="0.25" stroke-width="0.948868"/>
</g>
</g>
<defs>
<filter id="filter0_f_2936_1891" x="210.452" y="49.1058" width="16.033" height="9.18828" filterUnits="userSpaceOnUse" color-interpolation-filters="sRGB">
<feFlood flood-opacity="0" result="BackgroundImageFix"/>
<feBlend mode="normal" in="SourceGraphic" in2="BackgroundImageFix" result="shape"/>
<feGaussianBlur stdDeviation="0.681102" result="effect1_foregroundBlur_2936_1891"/>
</filter>
<filter id="filter1_f_2936_1891" x="-0.134391" y="117.024" width="14.8508" height="11.9526" filterUnits="userSpaceOnUse" color-interpolation-filters="sRGB">
<feFlood flood-opacity="0" result="BackgroundImageFix"/>
<feBlend mode="normal" in="SourceGraphic" in2="BackgroundImageFix" result="shape"/>
<feGaussianBlur stdDeviation="1.17047" result="effect1_foregroundBlur_2936_1891"/>
</filter>
<filter id="filter2_f_2936_1891" x="306.904" y="136.896" width="15.7445" height="11.4076" filterUnits="userSpaceOnUse" color-interpolation-filters="sRGB">
<feFlood flood-opacity="0" result="BackgroundImageFix"/>
<feBlend mode="normal" in="SourceGraphic" in2="BackgroundImageFix" result="shape"/>
<feGaussianBlur stdDeviation="0.769868" result="effect1_foregroundBlur_2936_1891"/>
</filter>
<filter id="filter3_f_2936_1891" x="35.5975" y="148.884" width="15.5306" height="11.9312" filterUnits="userSpaceOnUse" color-interpolation-filters="sRGB">
<feFlood flood-opacity="0" result="BackgroundImageFix"/>
<feBlend mode="normal" in="SourceGraphic" in2="BackgroundImageFix" result="shape"/>
<feGaussianBlur stdDeviation="1.19637" result="effect1_foregroundBlur_2936_1891"/>
</filter>
<filter id="filter4_f_2936_1891" x="177.773" y="208.011" width="15.5521" height="9.1783" filterUnits="userSpaceOnUse" color-interpolation-filters="sRGB">
<feFlood flood-opacity="0" result="BackgroundImageFix"/>
<feBlend mode="normal" in="SourceGraphic" in2="BackgroundImageFix" result="shape"/>
<feGaussianBlur stdDeviation="0.660115" result="effect1_foregroundBlur_2936_1891"/>
</filter>
<filter id="filter5_f_2936_1891" x="-1.18517" y="236.024" width="14.8508" height="11.9526" filterUnits="userSpaceOnUse" color-interpolation-filters="sRGB">
<feFlood flood-opacity="0" result="BackgroundImageFix"/>
<feBlend mode="normal" in="SourceGraphic" in2="BackgroundImageFix" result="shape"/>
<feGaussianBlur stdDeviation="1.17047" result="effect1_foregroundBlur_2936_1891"/>
</filter>
<filter id="filter7_f_2936_1891" x="135.68" y="6.70857" width="16.3866" height="9.28281" filterUnits="userSpaceOnUse" color-interpolation-filters="sRGB">
<feFlood flood-opacity="0" result="BackgroundImageFix"/>
<feBlend mode="normal" in="SourceGraphic" in2="BackgroundImageFix" result="shape"/>
<feGaussianBlur stdDeviation="0.71981" result="effect1_foregroundBlur_2936_1891"/>
</filter>
<filter id="filter9_f_2936_1891" x="81.2204" y="128.805" width="13.9385" height="9.38992" filterUnits="userSpaceOnUse" color-interpolation-filters="sRGB">
<feFlood flood-opacity="0" result="BackgroundImageFix"/>
<feBlend mode="normal" in="SourceGraphic" in2="BackgroundImageFix" result="shape"/>
<feGaussianBlur stdDeviation="0.614631" result="effect1_foregroundBlur_2936_1891"/>
</filter>
<filter id="filter10_f_2936_1891" x="117.378" y="47.9825" width="14.4676" height="9.33503" filterUnits="userSpaceOnUse" color-interpolation-filters="sRGB">
<feFlood flood-opacity="0" result="BackgroundImageFix"/>
<feBlend mode="normal" in="SourceGraphic" in2="BackgroundImageFix" result="shape"/>
<feGaussianBlur stdDeviation="0.627886" result="effect1_foregroundBlur_2936_1891"/>
</filter>
<filter id="filter11_f_2936_1891" x="89.4849" y="7.44758" width="16.3207" height="9.20445" filterUnits="userSpaceOnUse" color-interpolation-filters="sRGB">
<feFlood flood-opacity="0" result="BackgroundImageFix"/>
<feBlend mode="normal" in="SourceGraphic" in2="BackgroundImageFix" result="shape"/>
<feGaussianBlur stdDeviation="0.706263" result="effect1_foregroundBlur_2936_1891"/>
</filter>
<filter id="filter12_f_2936_1891" x="249.494" y="86.1707" width="16.3948" height="9.25837" filterUnits="userSpaceOnUse" color-interpolation-filters="sRGB">
<feFlood flood-opacity="0" result="BackgroundImageFix"/>
<feBlend mode="normal" in="SourceGraphic" in2="BackgroundImageFix" result="shape"/>
<feGaussianBlur stdDeviation="0.714434" result="effect1_foregroundBlur_2936_1891"/>
</filter>
<filter id="filter13_f_2936_1891" x="340.032" y="165.946" width="15.3282" height="13.5074" filterUnits="userSpaceOnUse" color-interpolation-filters="sRGB">
<feFlood flood-opacity="0" result="BackgroundImageFix"/>
<feBlend mode="normal" in="SourceGraphic" in2="BackgroundImageFix" result="shape"/>
<feGaussianBlur stdDeviation="0.795438" result="effect1_foregroundBlur_2936_1891"/>
</filter>
<filter id="filter14_f_2936_1891" x="32.1851" y="198.236" width="15.3515" height="11.9269" filterUnits="userSpaceOnUse" color-interpolation-filters="sRGB">
<feFlood flood-opacity="0" result="BackgroundImageFix"/>
<feBlend mode="normal" in="SourceGraphic" in2="BackgroundImageFix" result="shape"/>
<feGaussianBlur stdDeviation="1.18895" result="effect1_foregroundBlur_2936_1891"/>
</filter>
<filter id="filter15_f_2936_1891" x="180.631" y="5.86722" width="16.1376" height="9.56537" filterUnits="userSpaceOnUse" color-interpolation-filters="sRGB">
<feFlood flood-opacity="0" result="BackgroundImageFix"/>
<feBlend mode="normal" in="SourceGraphic" in2="BackgroundImageFix" result="shape"/>
<feGaussianBlur stdDeviation="0.75023" result="effect1_foregroundBlur_2936_1891"/>
</filter>
<filter id="filter16_f_2936_1891" x="79.1194" y="172.205" width="13.9385" height="9.38992" filterUnits="userSpaceOnUse" color-interpolation-filters="sRGB">
<feFlood flood-opacity="0" result="BackgroundImageFix"/>
<feBlend mode="normal" in="SourceGraphic" in2="BackgroundImageFix" result="shape"/>
<feGaussianBlur stdDeviation="0.614631" result="effect1_foregroundBlur_2936_1891"/>
</filter>
<filter id="filter17_f_2936_1891" x="122.531" y="158.259" width="14.6685" height="9.28227" filterUnits="userSpaceOnUse" color-interpolation-filters="sRGB">
<feFlood flood-opacity="0" result="BackgroundImageFix"/>
<feBlend mode="normal" in="SourceGraphic" in2="BackgroundImageFix" result="shape"/>
<feGaussianBlur stdDeviation="0.632579" result="effect1_foregroundBlur_2936_1891"/>
</filter>
<filter id="filter18_f_2936_1891" x="267.022" y="124.959" width="16.3616" height="9.38136" filterUnits="userSpaceOnUse" color-interpolation-filters="sRGB">
<feFlood flood-opacity="0" result="BackgroundImageFix"/>
<feBlend mode="normal" in="SourceGraphic" in2="BackgroundImageFix" result="shape"/>
<feGaussianBlur stdDeviation="0.732731" result="effect1_foregroundBlur_2936_1891"/>
</filter>
<filter id="filter19_f_2936_1891" x="307.955" y="92.7962" width="15.7445" height="11.4076" filterUnits="userSpaceOnUse" color-interpolation-filters="sRGB">
<feFlood flood-opacity="0" result="BackgroundImageFix"/>
<feBlend mode="normal" in="SourceGraphic" in2="BackgroundImageFix" result="shape"/>
<feGaussianBlur stdDeviation="0.769868" result="effect1_foregroundBlur_2936_1891"/>
</filter>
<filter id="filter20_f_2936_1891" x="221.552" y="127.512" width="16.2459" height="9.17532" filterUnits="userSpaceOnUse" color-interpolation-filters="sRGB">
<feFlood flood-opacity="0" result="BackgroundImageFix"/>
<feBlend mode="normal" in="SourceGraphic" in2="BackgroundImageFix" result="shape"/>
<feGaussianBlur stdDeviation="0.69709" result="effect1_foregroundBlur_2936_1891"/>
</filter>
<filter id="filter21_f_2936_1891" x="94.0985" y="85.4044" width="14.0984" height="9.39084" filterUnits="userSpaceOnUse" color-interpolation-filters="sRGB">
<feFlood flood-opacity="0" result="BackgroundImageFix"/>
<feBlend mode="normal" in="SourceGraphic" in2="BackgroundImageFix" result="shape"/>
<feGaussianBlur stdDeviation="0.618951" result="effect1_foregroundBlur_2936_1891"/>
</filter>
<filter id="filter22_f_2936_1891" x="326.63" y="210.424" width="15.5165" height="12.7523" filterUnits="userSpaceOnUse" color-interpolation-filters="sRGB">
<feFlood flood-opacity="0" result="BackgroundImageFix"/>
<feBlend mode="normal" in="SourceGraphic" in2="BackgroundImageFix" result="shape"/>
<feGaussianBlur stdDeviation="0.787317" result="effect1_foregroundBlur_2936_1891"/>
</filter>
<filter id="filter23_f_2936_1891" x="0.583647" y="8.15616" width="16.2165" height="9.18769" filterUnits="userSpaceOnUse" color-interpolation-filters="sRGB">
<feFlood flood-opacity="0" result="BackgroundImageFix"/>
<feBlend mode="normal" in="SourceGraphic" in2="BackgroundImageFix" result="shape"/>
<feGaussianBlur stdDeviation="0.692796" result="effect1_foregroundBlur_2936_1891"/>
</filter>
<filter id="filter24_f_2936_1891" x="44.4212" y="98.3858" width="16.7947" height="12.8282" filterUnits="userSpaceOnUse" color-interpolation-filters="sRGB">
<feFlood flood-opacity="0" result="BackgroundImageFix"/>
<feBlend mode="normal" in="SourceGraphic" in2="BackgroundImageFix" result="shape"/>
<feGaussianBlur stdDeviation="1.19637" result="effect1_foregroundBlur_2936_1891"/>
</filter>
<filter id="filter25_f_2936_1891" x="165.366" y="45.7991" width="17.2504" height="10.2018" filterUnits="userSpaceOnUse" color-interpolation-filters="sRGB">
<feFlood flood-opacity="0" result="BackgroundImageFix"/>
<feBlend mode="normal" in="SourceGraphic" in2="BackgroundImageFix" result="shape"/>
<feGaussianBlur stdDeviation="0.674784" result="effect1_foregroundBlur_2936_1891"/>
</filter>
<filter id="filter26_f_2936_1891" x="253.775" y="167.852" width="17.6396" height="10.3959" filterUnits="userSpaceOnUse" color-interpolation-filters="sRGB">
<feFlood flood-opacity="0" result="BackgroundImageFix"/>
<feBlend mode="normal" in="SourceGraphic" in2="BackgroundImageFix" result="shape"/>
<feGaussianBlur stdDeviation="0.723495" result="effect1_foregroundBlur_2936_1891"/>
</filter>
<filter id="filter27_f_2936_1891" x="171.846" y="126.666" width="16.8988" height="10.1683" filterUnits="userSpaceOnUse" color-interpolation-filters="sRGB">
<feFlood flood-opacity="0" result="BackgroundImageFix"/>
<feBlend mode="normal" in="SourceGraphic" in2="BackgroundImageFix" result="shape"/>
<feGaussianBlur stdDeviation="0.660115" result="effect1_foregroundBlur_2936_1891"/>
</filter>
<filter id="filter28_f_2936_1891" x="18.691" y="62.6927" width="16.4232" height="12.8148" filterUnits="userSpaceOnUse" color-interpolation-filters="sRGB">
<feFlood flood-opacity="0" result="BackgroundImageFix"/>
<feBlend mode="normal" in="SourceGraphic" in2="BackgroundImageFix" result="shape"/>
<feGaussianBlur stdDeviation="1.1821" result="effect1_foregroundBlur_2936_1891"/>
</filter>
<filter id="filter29_f_2936_1891" x="125.716" y="116.485" width="16.001" height="10.2308" filterUnits="userSpaceOnUse" color-interpolation-filters="sRGB">
<feFlood flood-opacity="0" result="BackgroundImageFix"/>
<feBlend mode="normal" in="SourceGraphic" in2="BackgroundImageFix" result="shape"/>
<feGaussianBlur stdDeviation="0.632579" result="effect1_foregroundBlur_2936_1891"/>
</filter>
<filter id="filter30_f_2936_1891" x="249.647" y="42.1281" width="17.4913" height="10.5435" filterUnits="userSpaceOnUse" color-interpolation-filters="sRGB">
<feFlood flood-opacity="0" result="BackgroundImageFix"/>
<feBlend mode="normal" in="SourceGraphic" in2="BackgroundImageFix" result="shape"/>
<feGaussianBlur stdDeviation="0.738662" result="effect1_foregroundBlur_2936_1891"/>
</filter>
<filter id="filter31_f_2936_1891" x="65.0147" y="50.2659" width="14.831" height="10.3682" filterUnits="userSpaceOnUse" color-interpolation-filters="sRGB">
<feFlood flood-opacity="0" result="BackgroundImageFix"/>
<feBlend mode="normal" in="SourceGraphic" in2="BackgroundImageFix" result="shape"/>
<feGaussianBlur stdDeviation="0.606198" result="effect1_foregroundBlur_2936_1891"/>
</filter>
<filter id="filter32_f_2936_1891" x="296.799" y="177.285" width="17.0424" height="11.8295" filterUnits="userSpaceOnUse" color-interpolation-filters="sRGB">
<feFlood flood-opacity="0" result="BackgroundImageFix"/>
<feBlend mode="normal" in="SourceGraphic" in2="BackgroundImageFix" result="shape"/>
<feGaussianBlur stdDeviation="0.760726" result="effect1_foregroundBlur_2936_1891"/>
</filter>
<filter id="filter33_f_2936_1891" x="226.502" y="208.189" width="17.5515" height="10.2212" filterUnits="userSpaceOnUse" color-interpolation-filters="sRGB">
<feFlood flood-opacity="0" result="BackgroundImageFix"/>
<feBlend mode="normal" in="SourceGraphic" in2="BackgroundImageFix" result="shape"/>
<feGaussianBlur stdDeviation="0.69709" result="effect1_foregroundBlur_2936_1891"/>
</filter>
<filter id="filter34_f_2936_1891" x="163.177" y="168.313" width="16.7261" height="10.175" filterUnits="userSpaceOnUse" color-interpolation-filters="sRGB">
<feFlood flood-opacity="0" result="BackgroundImageFix"/>
<feBlend mode="normal" in="SourceGraphic" in2="BackgroundImageFix" result="shape"/>
<feGaussianBlur stdDeviation="0.653927" result="effect1_foregroundBlur_2936_1891"/>
</filter>
<filter id="filter35_f_2936_1891" x="78.1174" y="210.944" width="15.2422" height="10.3116" filterUnits="userSpaceOnUse" color-interpolation-filters="sRGB">
<feFlood flood-opacity="0" result="BackgroundImageFix"/>
<feBlend mode="normal" in="SourceGraphic" in2="BackgroundImageFix" result="shape"/>
<feGaussianBlur stdDeviation="0.614631" result="effect1_foregroundBlur_2936_1891"/>
</filter>
<filter id="filter36_f_2936_1891" x="197.599" y="88.1572" width="17.2221" height="10.1855" filterUnits="userSpaceOnUse" color-interpolation-filters="sRGB">
<feFlood flood-opacity="0" result="BackgroundImageFix"/>
<feBlend mode="normal" in="SourceGraphic" in2="BackgroundImageFix" result="shape"/>
<feGaussianBlur stdDeviation="0.673696" result="effect1_foregroundBlur_2936_1891"/>
</filter>
<filter id="filter37_f_2936_1891" x="330.242" y="47.3233" width="16.6981" height="14.1529" filterUnits="userSpaceOnUse" color-interpolation-filters="sRGB">
<feFlood flood-opacity="0" result="BackgroundImageFix"/>
<feBlend mode="normal" in="SourceGraphic" in2="BackgroundImageFix" result="shape"/>
<feGaussianBlur stdDeviation="0.787317" result="effect1_foregroundBlur_2936_1891"/>
</filter>
<filter id="filter38_f_2936_1891" x="206.98" y="167.945" width="17.3728" height="10.2098" filterUnits="userSpaceOnUse" color-interpolation-filters="sRGB">
<feFlood flood-opacity="0" result="BackgroundImageFix"/>
<feBlend mode="normal" in="SourceGraphic" in2="BackgroundImageFix" result="shape"/>
<feGaussianBlur stdDeviation="0.681102" result="effect1_foregroundBlur_2936_1891"/>
</filter>
<filter id="filter39_f_2936_1891" x="148.908" y="83.2543" width="16.5461" height="10.1913" filterUnits="userSpaceOnUse" color-interpolation-filters="sRGB">
<feFlood flood-opacity="0" result="BackgroundImageFix"/>
<feBlend mode="normal" in="SourceGraphic" in2="BackgroundImageFix" result="shape"/>
<feGaussianBlur stdDeviation="0.648115" result="effect1_foregroundBlur_2936_1891"/>
</filter>
<filter id="filter40_f_2936_1891" x="287.92" y="53.596" width="17.2909" height="10.7079" filterUnits="userSpaceOnUse" color-interpolation-filters="sRGB">
<feFlood flood-opacity="0" result="BackgroundImageFix"/>
<feBlend mode="normal" in="SourceGraphic" in2="BackgroundImageFix" result="shape"/>
<feGaussianBlur stdDeviation="0.751429" result="effect1_foregroundBlur_2936_1891"/>
</filter>
<filter id="filter41_f_2936_1891" x="273.829" y="212.208" width="17.4546" height="10.5845" filterUnits="userSpaceOnUse" color-interpolation-filters="sRGB">
<feFlood flood-opacity="0" result="BackgroundImageFix"/>
<feBlend mode="normal" in="SourceGraphic" in2="BackgroundImageFix" result="shape"/>
<feGaussianBlur stdDeviation="0.742069" result="effect1_foregroundBlur_2936_1891"/>
</filter>
<filter id="filter43_f_2936_1891" x="42.6396" y="9.03779" width="17.5567" height="10.2242" filterUnits="userSpaceOnUse" color-interpolation-filters="sRGB">
<feFlood flood-opacity="0" result="BackgroundImageFix"/>
<feBlend mode="normal" in="SourceGraphic" in2="BackgroundImageFix" result="shape"/>
<feGaussianBlur stdDeviation="0.697291" result="effect1_foregroundBlur_2936_1891"/>
</filter>
<filter id="filter44_f_2936_1891" x="-6.70129" y="173.635" width="16.0774" height="12.8303" filterUnits="userSpaceOnUse" color-interpolation-filters="sRGB">
<feFlood flood-opacity="0" result="BackgroundImageFix"/>
<feBlend mode="normal" in="SourceGraphic" in2="BackgroundImageFix" result="shape"/>
<feGaussianBlur stdDeviation="1.17047" result="effect1_foregroundBlur_2936_1891"/>
</filter>
<filter id="filter45_f_2936_1891" x="126.067" y="202.585" width="16.001" height="10.2308" filterUnits="userSpaceOnUse" color-interpolation-filters="sRGB">
<feFlood flood-opacity="0" result="BackgroundImageFix"/>
<feBlend mode="normal" in="SourceGraphic" in2="BackgroundImageFix" result="shape"/>
<feGaussianBlur stdDeviation="0.632579" result="effect1_foregroundBlur_2936_1891"/>
</filter>
</defs>
</svg>
